<?xml version="1.0" standalone="no"?>
<!DOCTYPE svg PUBLIC "-//W3C//DTD SVG 20010904//EN"
 "http://www.w3.org/TR/2001/REC-SVG-20010904/DTD/svg10.dtd">
<svg version="1.0" xmlns="http://www.w3.org/2000/svg"
 width="16.000000pt" height="16.000000pt" viewBox="0 0 16.000000 16.000000"
 preserveAspectRatio="xMidYMid meet">
<metadata>
Created by potrace 1.11, written by Peter Selinger 2001-2013
</metadata>
<g transform="translate(0.000000,16.000000) scale(0.001481,-0.001481)"
fill="#000000" stroke="none">
<path d="M5123 10739 c-1863 -97 -3547 -1164 -4431 -2806 -627 -1165 -799
-2529 -482 -3810 237 -955 720 -1813 1410 -2503 1144 -1145 2755 -1711 4364
-1534 1745 191 3292 1235 4124 2781 627 1165 799 2529 482 3810 -480 1939
-1974 3433 -3913 3913 -511 127 -1030 176 -1554 149z m642 -99 c887 -65 1708
-336 2468 -817 307 -195 586 -421 877 -713 425 -424 722 -835 986 -1360 467
-932 644 -1971 514 -3010 -96 -770 -360 -1497 -787 -2173 -153 -242 -398 -556
-582 -747 l-101 -105 -37 41 c-21 23 -62 69 -90 102 l-53 60 55 26 c130 64
182 224 116 360 -32 65 -123 157 -191 191 -66 34 -155 39 -208 11 -52 -27
-107 -82 -127 -126 -11 -23 -24 -39 -31 -36 -6 2 -59 -36 -118 -86 l-105 -90
276 -329 c275 -330 276 -330 297 -311 11 10 55 46 96 81 64 54 59 48 -35 -44
-324 -316 -774 -630 -1235 -861 -932 -467 -1971 -644 -3010 -514 -589 74
-1154 246 -1690 514 -525 264 -936 561 -1360 986 -425 424 -722 835 -986 1360
-467 932 -644 1971 -514 3010 74 589 246 1154 514 1690 264 525 561 936 986
1360 424 425 835 722 1360 986 612 307 1282 492 1960 543 166 12 592 13 755 1z
m3153 -8199 c51 -27 129 -107 158 -163 42 -83 30 -172 -35 -241 -39 -43 -77
-59 -128 -55 -34 2 -48 -1 -56 -13 -9 -14 8 -37 91 -130 56 -62 102 -115 102
-119 0 -8 -129 -120 -139 -120 -8 0 -463 542 -468 557 -2 5 24 33 58 62 l61
54 23 -29 c19 -23 25 -26 38 -16 8 7 17 35 19 63 10 100 106 187 196 175 23
-3 59 -14 80 -25z"/>
<path d="M5255 10226 c-22 -7 -53 -21 -68 -30 -27 -18 -27 -18 -27 4 0 22 0
22 -137 15 -76 -4 -140 -9 -142 -11 -1 -1 7 -136 20 -300 l23 -297 81 7 c44 3
102 6 129 6 l49 0 -7 184 c-6 182 -6 185 16 200 39 28 48 6 48 -123 0 -64 3
-146 7 -183 l6 -68 128 0 129 0 1 163 c1 194 5 211 44 215 l28 4 -6 -195 -6
-194 125 -7 c69 -4 127 -6 129 -4 4 5 35 358 35 403 -1 185 -186 277 -343 171
l-35 -24 -19 20 c-39 44 -141 66 -208 44z m150 -72 c14 -9 35 -34 47 -55 12
-22 24 -39 27 -39 3 0 16 16 29 36 27 42 90 73 147 74 87 0 145 -59 145 -150
0 -78 -23 -335 -31 -344 -4 -5 -37 -5 -72 -2 l-65 7 5 169 6 168 -26 26 c-36
36 -94 36 -127 1 -28 -30 -38 -90 -39 -247 l-1 -108 -75 0 -75 0 0 149 c0 199
-13 231 -92 231 -44 0 -75 -23 -87 -65 -5 -18 -7 -98 -4 -178 l6 -144 -67 -8
c-37 -4 -70 -5 -72 -2 -6 5 -45 469 -41 473 2 2 40 6 85 10 l82 7 0 -47 c0
-42 2 -46 23 -46 15 0 29 9 37 26 16 30 59 62 98 75 37 11 107 3 137 -17z"/>
<path d="M5901 9992 c-13 -121 -19 -227 -15 -249 15 -84 60 -140 130 -163 36
-12 105 -10 137 4 12 6 17 4 17 -7 0 -10 31 -20 121 -37 67 -12 124 -18 128
-14 9 10 133 566 127 571 -7 7 -267 56 -272 50 -3 -3 -19 -83 -36 -179 -29
-166 -43 -208 -67 -194 -16 10 -13 62 9 211 30 200 40 179 -92 194 -62 7 -125
15 -139 18 l-26 5 -22 -210z m222 122 c11 -4 16 -12 12 -27 -12 -55 -35 -242
-35 -282 0 -65 34 -94 100 -85 8 1 25 12 38 24 19 19 28 51 50 174 15 83 30
154 34 157 8 8 147 -15 153 -25 2 -3 -16 -94 -39 -201 -24 -107 -47 -209 -51
-226 -7 -37 -16 -39 -96 -22 l-51 11 6 38 c5 33 3 38 -16 44 -16 3 -31 -2 -48
-18 -52 -49 -114 -60 -170 -31 -66 34 -76 94 -54 311 l19 176 65 -7 c36 -3 73
-9 83 -11z"/>
<path d="M4572 10171 c-29 -10 -68 -33 -86 -51 l-34 -32 -40 21 c-74 38 -173
23 -242 -36 -27 -24 -40 -30 -40 -19 0 8 -4 18 -10 21 -10 6 -249 -53 -263
-65 -8 -7 145 -555 157 -568 6 -5 220 48 238 59 6 4 -5 71 -32 183 -40 166
-42 178 -26 194 34 34 49 6 90 -179 21 -96 40 -176 42 -178 4 -4 233 37 244
44 4 2 -6 78 -22 167 -34 192 -33 212 3 216 32 4 31 9 59 -198 12 -85 23 -160
25 -166 2 -7 43 -5 131 5 l129 16 -3 35 c-14 149 -44 382 -54 414 -25 78 -106
137 -188 136 -14 -1 -49 -9 -78 -19z m143 -55 c56 -24 73 -72 96 -273 11 -97
17 -179 12 -184 -4 -4 -37 -9 -72 -11 l-65 -3 -17 110 c-9 61 -20 132 -23 159
-14 94 -95 129 -157 67 -36 -36 -36 -48 -4 -226 13 -76 23 -140 22 -142 -2 -1
-33 -9 -70 -16 l-66 -14 -16 71 c-57 255 -60 262 -103 285 -47 25 -112 -12
-126 -70 -3 -16 8 -83 29 -168 19 -78 35 -146 35 -150 0 -9 -129 -46 -136 -39
-7 8 -133 452 -129 456 2 3 142 41 152 42 1 0 7 -18 13 -40 15 -55 40 -53 74
4 33 57 76 87 131 94 64 7 95 -5 136 -50 l37 -40 20 45 c38 86 141 128 227 93z"/>
<path d="M6664 10128 c-10 -43 -10 -43 -51 -40 -47 3 -42 10 -69 -112 -18 -83
-14 -95 28 -96 9 0 19 -4 22 -9 4 -5 -6 -58 -20 -117 -30 -124 -28 -178 10
-235 14 -20 40 -46 59 -58 43 -26 161 -54 197 -46 25 5 30 14 45 70 10 36 21
62 25 60 4 -3 10 -22 13 -42 20 -125 190 -243 356 -246 l64 -2 28 65 c15 36
30 69 32 74 1 5 12 4 24 -2 19 -11 23 -6 59 76 67 154 47 272 -59 353 -133
100 -306 96 -411 -8 -20 -20 -36 -32 -36 -27 0 5 12 44 26 87 14 43 24 83 21
90 -2 7 -26 18 -51 25 -41 11 -46 15 -41 33 4 12 15 50 25 85 l19 64 -153 0
-153 0 -9 -42z m236 -15 c0 -5 -9 -37 -20 -71 -11 -35 -20 -68 -20 -72 0 -5
19 -15 43 -21 57 -17 58 -19 45 -63 -11 -36 -13 -37 -47 -30 -74 15 -72 16
-102 -81 -37 -120 -37 -167 -3 -194 15 -12 33 -21 40 -21 10 0 10 -9 -3 -46
-15 -43 -17 -45 -47 -39 -74 16 -107 30 -136 60 -46 48 -48 88 -11 239 17 70
31 131 31 136 0 5 -16 12 -36 16 -34 6 -36 9 -30 37 3 16 6 36 6 44 0 11 9 13
44 8 44 -7 44 -7 51 27 18 79 16 78 110 78 47 0 85 -3 85 -7z m429 -304 c93
-39 150 -128 137 -211 -5 -32 -43 -138 -50 -138 -1 0 -66 27 -145 60 -152 63
-161 64 -161 10 0 -63 83 -130 183 -146 20 -4 37 -8 37 -11 0 -2 -7 -17 -15
-33 -19 -37 -33 -37 -138 -3 -67 22 -91 36 -133 78 -77 74 -88 127 -53 240 16
53 31 78 68 115 73 73 162 86 270 39z m-390 -29 l40 -11 -19 -32 c-10 -17 -24
-51 -31 -74 -12 -42 -13 -43 -56 -43 -41 0 -43 2 -43 28 0 16 7 51 16 78 9 27
18 55 20 63 2 7 11 11 18 8 8 -3 33 -11 55 -17z m311 -315 c14 -8 21 -14 15
-14 -5 0 -21 6 -35 14 -14 8 -20 14 -15 14 6 0 21 -6 35 -14z"/>
<path d="M7225 9744 c-34 -17 -61 -50 -70 -85 -6 -22 0 -26 77 -56 92 -35 93
-34 109 35 11 50 -7 91 -47 108 -40 17 -32 17 -69 -2z m59 -67 c15 -23 0 -32
-30 -18 -22 10 -24 14 -14 27 15 17 29 14 44 -9z"/>
<path d="M3547 9920 c-109 -28 -206 -97 -251 -180 -24 -43 -29 -65 -29 -119 0
-158 103 -290 250 -321 138 -30 334 68 386 192 46 109 22 252 -59 347 -58 69
-195 106 -297 81z m211 -87 c68 -42 107 -121 107 -217 0 -86 -27 -143 -93
-193 -54 -41 -169 -77 -223 -70 -100 13 -180 86 -215 195 -42 136 36 251 211
309 64 21 157 11 213 -24z"/>
<path d="M3544 9750 c-32 -12 -64 -59 -64 -91 0 -47 39 -136 71 -164 41 -34
100 -35 134 0 34 33 34 110 1 182 -33 70 -84 97 -142 73z m77 -80 c10 -14 23
-44 28 -68 7 -35 6 -46 -8 -63 -15 -19 -21 -20 -40 -10 -26 14 -60 84 -61 123
0 28 24 50 49 45 8 -1 22 -13 32 -27z"/>
<path d="M2963 9891 c-156 -54 -260 -137 -316 -250 -30 -61 -32 -73 -32 -166
0 -93 2 -105 34 -170 47 -97 154 -204 234 -233 82 -31 186 -30 273 3 70 26
184 97 222 138 l24 25 -58 121 -57 121 -34 -45 c-82 -105 -200 -140 -275 -83
-43 33 -78 100 -78 150 0 64 67 135 149 158 20 5 62 10 93 10 l57 0 -58 123
c-42 87 -63 123 -77 125 -10 1 -56 -11 -101 -27z m111 -98 c15 -31 25 -57 24
-58 -2 0 -29 -9 -60 -18 -154 -47 -226 -158 -184 -284 18 -56 73 -126 115
-147 76 -40 175 -23 259 43 l50 40 25 -57 25 -57 -27 -28 c-14 -16 -66 -48
-115 -73 -82 -41 -94 -44 -167 -44 -100 0 -153 23 -230 100 -176 175 -156 420
45 554 55 37 166 85 198 86 11 0 26 -20 42 -57z"/>
<path d="M8007 9748 c-9 -13 -96 -169 -196 -348 -139 -252 -177 -328 -168
-337 28 -27 401 -254 411 -250 6 3 39 45 74 95 l63 91 -101 67 c-55 37 -100
70 -100 73 1 32 22 26 105 -29 71 -47 92 -57 102 -47 7 6 39 50 71 97 l60 85
-98 65 c-87 58 -97 67 -85 83 7 9 15 17 19 17 4 0 46 -26 94 -58 48 -32 92
-61 99 -65 10 -6 125 141 140 178 2 8 -83 67 -222 155 -125 78 -233 144 -240
147 -8 2 -20 -6 -28 -19z m228 -174 l185 -115 -32 -47 c-17 -26 -32 -48 -34
-50 -1 -2 -50 28 -107 67 l-106 71 -45 -72 -45 -72 95 -63 c103 -69 101 -64
52 -130 l-24 -31 -93 60 c-51 33 -94 58 -95 57 -14 -18 -76 -121 -76 -128 0
-5 43 -37 95 -71 52 -34 95 -65 95 -68 0 -12 -56 -92 -64 -92 -11 0 -314 189
-321 199 -4 8 323 601 331 601 2 0 87 -52 189 -116z"/>
<path d="M5160 9394 c-1281 -93 -2409 -744 -3095 -1789 -360 -549 -573 -1141
-641 -1785 -11 -109 -22 -171 -32 -182 -8 -10 -12 -24 -9 -33 5 -12 -2 -15
-33 -15 -29 0 -40 -4 -40 -15 0 -8 -7 -15 -15 -15 -9 0 -15 -9 -15 -25 0 -16
-6 -25 -15 -25 -12 0 -15 -13 -15 -55 0 -42 3 -55 15 -55 8 0 15 -7 15 -15 0
-8 5 -15 11 -15 22 0 39 -30 39 -67 0 -58 -56 -215 -96 -267 -35 -46 -51 -54
-70 -37 -23 22 -122 41 -217 41 -203 0 -373 -94 -483 -266 -87 -136 -110 -328
-58 -482 60 -179 188 -306 367 -367 107 -36 246 -35 355 1 191 63 330 214 381
416 l18 71 7 -39 c13 -67 120 -383 175 -513 237 -563 591 -1058 1041 -1455
485 -428 1067 -734 1685 -886 354 -87 584 -114 965 -114 381 0 611 27 965 114
618 152 1200 458 1685 886 568 501 976 1148 1195 1894 l34 115 1 -82 0 -83
200 0 200 0 0 185 0 185 190 0 191 0 -3 464 -3 464 -25 27 c-38 42 -80 55
-175 55 l-85 0 0 38 c0 60 -38 259 -66 340 -74 222 -232 433 -424 568 -71 49
-77 57 -94 111 -53 170 -196 490 -308 687 -306 541 -753 1020 -1273 1361 -540
355 -1117 564 -1765 640 -129 15 -563 27 -680 19z m685 -118 c1339 -164 2476
-969 3060 -2168 63 -129 177 -399 172 -405 -1 -1 -55 16 -119 38 -152 50 -262
69 -413 69 -540 0 -1011 -323 -1171 -802 -33 -101 -53 -214 -54 -305 l0 -73
-95 0 c-107 0 -150 -13 -183 -55 -22 -28 -22 -31 -22 -491 l0 -464 175 0 175
0 0 -185 0 -185 205 0 205 0 0 185 0 185 720 0 c396 0 720 -4 720 -8 0 -28
-77 -314 -118 -439 -417 -1263 -1467 -2237 -2757 -2557 -338 -84 -567 -110
-945 -110 -378 0 -607 26 -945 110 -1315 326 -2380 1333 -2779 2626 -36 118
-69 245 -101 395 -3 13 -1 23 6 23 14 0 39 -25 39 -39 0 -6 7 -11 15 -11 8 0
15 -7 15 -15 0 -8 5 -15 11 -15 26 0 39 -30 39 -94 0 -36 4 -66 8 -66 9 0 52
-98 52 -118 0 -6 -7 -12 -15 -12 -8 0 -15 -4 -15 -10 0 -5 -7 -10 -15 -10 -10
0 -15 -10 -15 -30 0 -27 3 -30 30 -30 20 0 30 5 30 15 0 12 15 15 75 15 60 0
75 3 75 15 0 11 11 15 40 15 22 0 40 5 40 10 0 6 6 10 14 10 22 0 46 58 46
112 l0 48 155 0 c85 0 155 -2 155 -5 0 -3 9 -40 21 -83 53 -198 188 -344 378
-409 93 -32 249 -32 342 0 182 62 327 214 374 392 19 76 19 224 0 300 -47 178
-192 330 -374 392 -125 43 -301 29 -423 -33 -26 -13 -51 -24 -55 -24 -4 0 -19
17 -33 38 -14 20 -35 48 -47 62 -13 14 -23 33 -23 42 0 10 -5 18 -10 18 -6 0
13 29 42 65 47 57 60 67 117 86 l63 21 34 75 c28 61 34 86 34 141 l0 67 -129
180 c-167 233 -286 346 -581 550 -91 62 -122 90 -118 102 8 24 -30 120 -62
155 -58 65 -150 79 -198 32 -8 -8 -16 -13 -19 -11 -5 6 65 201 117 322 362
849 1018 1548 1840 1960 464 232 949 365 1495 409 113 9 576 -3 700 -18z
m2876 -2760 c47 -8 112 -22 145 -31 65 -19 227 -96 251 -120 8 -9 30 -27 48
-40 32 -25 34 -31 63 -188 17 -89 33 -174 35 -189 l4 -28 -69 0 c-63 0 -69 2
-62 18 14 32 16 103 4 133 -18 43 -65 79 -105 79 -40 0 -87 -36 -105 -79 -12
-30 -10 -101 4 -133 7 -16 0 -18 -77 -18 -80 0 -86 1 -89 21 -5 33 -46 58
-116 71 -34 6 -62 16 -62 22 0 5 12 23 28 39 24 25 27 36 27 93 0 61 -2 68
-33 95 -20 18 -43 29 -62 29 -19 0 -42 -11 -62 -29 -31 -27 -33 -34 -33 -95 0
-57 3 -68 28 -93 15 -16 27 -34 27 -40 0 -6 -27 -16 -59 -22 -66 -13 -111 -42
-111 -72 0 -17 -8 -19 -78 -19 l-77 0 4 46 c4 59 -22 118 -64 144 -94 58 -203
-23 -194 -144 l4 -46 -157 0 c-111 0 -158 3 -158 11 0 7 20 53 43 103 127 266
379 446 693 496 73 11 251 4 365 -14z m-7008 -191 c32 -40 77 -66 115 -67 l27
-1 -3 -211 -3 -211 -72 -72 c-39 -40 -77 -73 -84 -73 -7 0 -13 -4 -13 -10 0
-5 -7 -10 -15 -10 -8 0 -15 -4 -15 -10 0 -6 -30 -10 -70 -10 l-70 0 0 33 c0
119 49 421 107 662 l36 150 16 -68 c10 -41 27 -81 44 -102z m7661 -198 c36
-56 77 -140 91 -184 6 -22 4 -23 -49 -23 -54 0 -56 1 -56 28 0 24 -19 147 -36
227 -7 36 0 29 50 -48z m-1374 -312 c0 -18 -5 -25 -18 -25 -31 0 -138 -57
-161 -86 -11 -15 -21 -37 -21 -50 0 -24 -1 -24 -112 -24 l-111 0 6 96 c4 52 9
99 12 105 4 5 92 9 206 9 l199 0 0 -25z m980 5 c0 -11 -8 -23 -17 -27 -89 -29
-153 -88 -153 -140 l0 -23 -250 0 -250 0 0 27 c0 33 -66 98 -109 108 -17 4
-33 11 -36 16 -4 5 -15 9 -26 9 -14 0 -19 7 -19 25 l0 25 430 0 c426 0 430 0
430 -20z m303 -47 c4 -38 7 -86 7 -108 l-1 -40 -25 53 c-28 56 -69 91 -136
112 -27 8 -38 17 -38 31 0 17 8 19 94 19 l93 0 6 -67z m211 45 c3 -13 6 -55 6
-95 0 -81 -9 -93 -74 -93 -33 0 -36 2 -36 28 0 16 -3 63 -6 105 l-7 77 55 0
c49 0 56 -3 62 -22z m-7374 -235 l0 -78 -118 -118 c-64 -64 -123 -117 -130
-117 -6 0 -12 -7 -12 -15 0 -8 -5 -15 -11 -15 -17 0 -37 -25 -41 -51 -3 -24
-3 -24 -149 -27 -173 -3 -159 -17 -159 155 l0 112 43 12 c267 71 332 91 347
104 9 8 24 15 32 15 9 0 18 7 22 15 3 8 15 15 26 15 11 0 20 5 20 10 0 6 7 10
15 10 8 0 15 8 15 17 0 9 14 32 31 50 l32 32 18 -24 c15 -18 19 -40 19 -102z
m-720 -128 c0 -48 -2 -55 -20 -55 -11 0 -20 7 -20 15 0 8 -7 15 -15 15 -9 0
-15 9 -15 25 0 16 6 25 15 25 8 0 15 7 15 15 0 8 9 15 20 15 18 0 20 -7 20
-55z m6314 -89 c168 -98 167 -344 -2 -443 -40 -24 -58 -28 -122 -28 -64 0 -82
4 -123 28 -184 108 -160 389 39 463 58 22 153 13 208 -20z m1890 0 c168 -98
167 -344 -2 -443 -40 -24 -58 -28 -122 -28 -64 0 -82 4 -123 28 -184 108 -160
389 39 463 58 22 153 13 208 -20z m-7190 -126 c31 -12 33 -29 5 -64 -24 -30
-76 -36 -86 -10 -8 21 23 84 41 84 8 0 26 -4 40 -10z m-995 -208 c1 -21 -1
-22 -14 -8 -16 15 -20 67 -7 80 7 8 19 -31 21 -72z m389 -174 l3 -248 -26 0
c-15 0 -25 6 -25 14 0 8 -6 16 -14 18 -18 4 -176 179 -176 196 0 6 -7 12 -15
12 -8 0 -17 10 -20 23 -4 21 -25 205 -25 227 0 7 48 10 148 8 l147 -3 3 -247z
m530 212 c1 -8 -53 -107 -121 -220 -164 -273 -161 -273 -165 3 l-2 207 25 0
c14 0 25 4 25 10 0 5 46 11 103 13 133 4 131 4 135 -13z m137 -97 c56 -69 57
-73 18 -117 -47 -56 -100 -165 -114 -237 -7 -38 -17 -59 -25 -59 -8 0 -14 -7
-14 -15 0 -12 -17 -15 -95 -15 -88 0 -95 2 -95 20 0 10 6 23 13 27 6 4 23 29
35 55 13 25 31 55 40 65 10 10 26 35 36 56 11 20 22 37 26 37 5 0 10 10 14 23
3 12 13 31 23 42 10 12 27 37 37 58 11 20 25 37 33 37 7 0 13 10 13 23 0 23 7
37 19 37 3 0 20 -17 36 -37z m-1361 -32 c14 -11 13 -16 -1 -37 -8 -13 -23 -24
-32 -24 -10 0 -12 -3 -5 -8 15 -9 -135 -261 -156 -262 -40 -1 -80 -59 -80
-115 0 -72 41 -115 110 -115 73 0 110 43 110 125 0 41 10 64 78 177 42 71 84
143 93 159 l15 30 50 -53 c95 -101 134 -197 134 -333 0 -133 -39 -232 -128
-327 -93 -100 -206 -148 -347 -148 -177 0 -329 88 -417 240 -78 135 -78 335 0
470 58 100 162 185 270 221 46 16 79 19 174 16 73 -3 123 -9 132 -16z m1967
-1 c198 -67 319 -236 319 -445 0 -266 -199 -465 -465 -465 -209 0 -378 121
-445 319 -35 106 -44 99 140 100 l160 2 39 -41 c35 -37 42 -40 90 -40 47 0 57
4 87 34 30 30 34 40 34 86 0 46 -4 56 -34 86 -25 25 -43 34 -68 34 -29 0 -39
7 -70 48 -20 26 -63 83 -97 127 -42 56 -57 82 -48 87 9 6 8 10 -3 18 -21 13
-6 25 65 49 83 28 214 28 296 1z m-1703 -53 c43 -43 63 -72 68 -97 l7 -35 -32
45 c-18 25 -58 69 -89 97 -44 41 -52 53 -37 53 12 0 47 -27 83 -63z m1272
-131 c0 -2 25 -30 55 -62 30 -33 55 -64 55 -70 0 -7 7 -14 15 -18 8 -3 15 -15
15 -26 0 -19 -6 -20 -135 -20 -84 0 -135 4 -135 10 0 6 -8 5 -20 -2 -10 -7
-22 -9 -25 -6 -17 16 42 161 92 226 l25 33 29 -30 c16 -17 29 -33 29 -35z"/>
<path d="M5638 6681 c-42 -9 -108 -55 -108 -77 0 -7 -4 -14 -9 -14 -15 0 -31
-60 -31 -115 0 -99 73 -186 168 -203 l44 -7 -53 -69 c-62 -82 -124 -220 -140
-313 -20 -117 -28 -127 -129 -178 -71 -36 -90 -42 -90 -29 0 9 -27 64 -61 123
-47 82 -70 113 -102 134 -86 56 -84 53 -55 84 41 44 58 87 58 148 0 121 -84
205 -205 205 -120 0 -205 -84 -205 -205 0 -88 40 -150 122 -191 l37 -19 -30
-35 c-16 -19 -39 -46 -52 -60 -46 -52 -85 -144 -106 -250 l-21 -104 -95 -93
c-52 -52 -95 -101 -95 -109 0 -43 74 -60 100 -24 8 11 20 20 28 20 16 0 42 24
42 39 0 6 7 11 15 11 8 0 15 5 15 10 0 6 8 10 18 10 10 0 24 9 32 20 8 11 20
20 27 20 7 0 13 9 13 20 0 12 7 35 17 53 15 29 17 30 24 12 18 -46 -4 -151
-72 -345 -38 -107 -69 -200 -69 -208 0 -8 9 -16 20 -19 13 -4 19 -11 16 -22
-23 -71 -136 -596 -132 -607 8 -22 113 -19 125 4 7 13 95 255 203 555 8 23 16
27 46 27 l37 -1 84 -187 c151 -336 161 -357 175 -382 17 -29 41 -35 79 -21 44
17 36 63 -53 311 -48 133 -80 239 -80 261 0 38 1 39 35 39 26 0 35 4 35 16 0
14 -77 268 -86 285 -2 3 47 18 108 34 l111 28 -6 70 c-3 38 -10 74 -16 80 -5
7 -12 29 -16 50 -6 30 -11 37 -31 37 -18 0 -24 5 -24 23 0 25 33 47 70 47 10
0 22 5 25 10 3 6 24 10 46 10 28 0 39 4 39 15 0 8 8 15 19 15 10 0 39 21 65
48 l46 47 0 -35 c0 -19 7 -60 15 -90 8 -30 18 -94 21 -142 7 -94 11 -81 -91
-365 -29 -78 -35 -113 -44 -245 -11 -150 -31 -551 -31 -615 l0 -33 90 0 90 0
0 130 c0 72 4 130 9 130 5 0 12 60 16 133 6 120 11 145 53 275 26 78 49 142
52 142 11 0 51 -169 57 -243 l6 -78 150 -252 c82 -139 155 -258 162 -266 12
-12 21 -9 62 15 26 16 60 35 76 43 15 7 27 19 27 25 0 7 -20 45 -45 85 -25 40
-45 74 -45 76 0 2 -45 80 -101 174 l-100 171 5 88 c3 48 9 162 12 253 l6 167
106 26 c200 50 182 42 182 84 0 21 -16 85 -35 143 -19 57 -35 105 -35 107 0 1
-13 2 -30 2 l-30 0 0 108 0 108 -112 192 c-105 178 -117 195 -174 236 -34 25
-64 51 -66 58 -3 7 6 33 19 57 49 92 21 215 -63 274 -42 30 -118 41 -186 28z
m442 -1013 l0 -98 -30 0 -30 0 0 116 0 115 30 -18 30 -17 0 -98z m-920 -98 c0
-11 -2 -20 -4 -20 -2 0 -6 9 -9 20 -3 11 -1 20 4 20 5 0 9 -9 9 -20z"/>
<path d="M2026 9188 l-85 -123 35 -36 34 -35 -70 -65 c-49 -46 -71 -73 -76
-97 -5 -25 -11 -31 -24 -27 -15 5 -74 -54 -175 -173 l-26 -31 223 -190 c123
-105 226 -191 229 -191 4 0 44 41 90 91 l83 91 -117 113 c-97 93 -117 117
-117 142 0 34 12 51 60 83 19 13 37 25 39 27 2 1 -1 9 -8 16 -8 11 -6 18 10
33 20 18 21 18 102 -69 87 -92 143 -127 207 -127 68 0 165 63 210 135 l21 33
-62 81 c-34 45 -65 81 -68 81 -3 0 -16 -16 -29 -35 -12 -19 -26 -35 -31 -35
-5 0 -28 24 -52 53 -24 28 -49 59 -56 68 -11 13 -7 20 27 45 22 16 40 33 40
37 0 11 -109 151 -121 155 -5 2 -27 -11 -49 -28 l-40 -32 -20 24 c-11 12 -35
42 -52 65 -18 23 -36 43 -40 43 -4 0 -45 -55 -92 -122z m146 -33 c23 -30 46
-55 49 -55 3 0 23 14 44 30 21 17 41 30 44 30 3 0 16 -15 29 -33 l23 -32 -42
-37 -42 -36 48 -59 c99 -118 116 -133 155 -133 20 0 42 6 49 13 10 10 18 5 42
-22 26 -31 27 -37 15 -55 -7 -11 -34 -35 -61 -53 -91 -63 -147 -41 -280 108
l-89 99 -28 -27 -28 -27 -32 32 -32 32 29 30 29 30 -39 40 -39 40 49 70 c26
38 52 70 56 70 4 0 27 -25 51 -55z m-156 -395 c-48 -51 -59 -106 -32 -158 8
-15 55 -67 106 -116 l91 -88 -43 -48 c-24 -26 -46 -48 -50 -49 -10 -1 -358
299 -358 309 0 5 23 34 51 65 l52 56 32 -31 c31 -30 32 -30 49 -11 15 17 16
25 6 55 -12 38 -8 66 17 105 l15 23 44 -43 44 -43 -24 -26z"/>
<path d="M8245 9043 c-93 -128 -171 -238 -173 -242 -2 -7 65 -63 184 -153 8
-6 46 33 113 116 125 154 129 158 155 154 42 -6 26 -37 -88 -172 -64 -74 -116
-139 -116 -144 0 -5 40 -45 89 -89 l89 -81 134 135 c95 94 139 132 150 128 41
-16 28 -38 -103 -171 l-131 -132 20 -29 c11 -15 50 -57 86 -92 l65 -65 23 20
c13 10 84 74 160 142 155 139 195 198 185 272 -12 95 -103 183 -198 196 -48 6
-49 7 -49 41 0 47 -21 83 -75 131 -30 27 -63 44 -96 52 -36 9 -48 15 -40 23 6
6 11 14 11 18 0 6 -183 152 -214 170 -6 4 -83 -92 -181 -228z m259 95 l55 -42
-25 -34 c-36 -46 -20 -65 47 -56 64 9 127 -15 169 -62 35 -40 39 -65 26 -137
l-6 -33 73 0 c66 1 77 -2 111 -28 80 -60 95 -130 43 -203 -25 -35 -264 -253
-277 -253 -5 0 -27 23 -51 51 l-42 51 110 111 c61 62 116 122 122 134 27 53
-22 113 -93 113 -39 0 -45 -5 -151 -115 -61 -63 -115 -115 -121 -115 -5 0 -29
20 -53 44 l-44 45 74 86 c147 171 165 212 113 260 -31 29 -87 33 -121 10 -11
-8 -62 -66 -113 -130 l-91 -115 -55 41 c-30 23 -54 44 -54 46 0 17 277 383
286 379 7 -3 37 -24 68 -48z"/>
<path d="M8999 8403 c-107 -91 -209 -179 -227 -195 l-33 -29 79 -99 79 -99
144 109 c79 61 151 110 160 110 9 0 22 -7 29 -15 18 -22 8 -31 -156 -147 -86
-60 -141 -105 -137 -112 21 -34 135 -196 139 -196 2 0 72 43 156 95 83 52 155
95 159 95 13 0 40 -32 36 -44 -2 -6 -73 -53 -158 -103 -85 -51 -155 -97 -157
-101 -3 -11 112 -214 122 -214 4 0 87 42 184 93 199 105 252 149 270 220 24
97 -39 211 -140 254 -37 15 -38 16 -38 71 0 88 -60 178 -137 206 -30 11 -31
13 -17 29 14 16 8 26 -74 127 l-89 110 -194 -165z m271 -24 l20 -27 -35 -23
c-19 -13 -35 -27 -35 -30 0 -14 37 -36 65 -37 80 -5 143 -55 166 -130 10 -34
8 -45 -10 -87 -11 -26 -21 -51 -21 -56 0 -5 21 -9 48 -9 29 0 59 -7 79 -20 47
-28 86 -92 87 -143 2 -74 -35 -106 -256 -221 l-126 -66 -31 55 c-17 30 -31 59
-31 64 0 5 58 43 129 85 71 42 137 86 147 97 46 51 2 141 -68 141 -42 0 -68
-13 -199 -98 -55 -35 -103 -64 -107 -64 -9 0 -72 96 -72 109 0 6 44 41 98 78
147 103 172 128 172 173 0 30 -6 44 -31 64 -54 45 -81 36 -231 -79 -60 -47
-114 -85 -118 -85 -5 0 -27 23 -49 51 l-40 51 181 155 182 156 33 -39 c19 -21
43 -51 53 -65z"/>
<path d="M1555 8456 c-98 -46 -202 -197 -228 -332 -6 -30 -3 -33 83 -88 50
-31 92 -56 94 -56 2 0 6 33 8 73 5 72 30 139 62 166 23 19 20 8 -16 -62 -28
-53 -32 -72 -33 -138 0 -67 3 -79 27 -111 16 -20 52 -48 83 -63 118 -58 230
-4 265 127 6 21 16 38 23 38 7 0 43 40 80 90 l69 90 -33 27 c-245 207 -333
263 -407 263 -15 0 -49 -11 -77 -24z m149 -56 c23 -11 86 -56 141 -101 55 -44
110 -89 123 -99 l23 -19 -33 -45 c-18 -25 -37 -45 -41 -46 -5 0 -20 9 -34 20
-24 19 -28 19 -44 5 -16 -15 -18 -14 -29 19 -6 20 -28 49 -50 66 l-38 30 -27
-47 c-40 -71 -44 -115 -12 -147 43 -43 105 -27 129 33 l10 26 15 -40 c18 -51
5 -101 -38 -144 -52 -52 -135 -39 -193 29 -43 51 -37 108 23 225 49 95 49 95
28 110 -12 8 -38 15 -59 15 -55 0 -101 -50 -129 -140 l-21 -70 -30 21 c-34 24
-33 39 6 124 35 75 81 132 133 165 55 35 91 37 147 10z m54 -298 c2 -13 -3
-25 -13 -28 -22 -9 -29 1 -21 31 8 31 30 28 34 -3z"/>
<path d="M1235 7972 c-82 -38 -130 -130 -123 -230 l4 -58 -46 -26 c-65 -37
-102 -107 -102 -195 0 -58 -1 -64 -18 -60 -15 4 -25 -15 -64 -126 -26 -72 -43
-134 -39 -138 13 -12 553 -182 559 -176 8 8 85 229 81 233 -2 2 -75 31 -162
64 -88 34 -165 66 -172 72 -18 14 -16 47 2 55 9 3 93 -26 186 -65 l171 -70 44
94 c69 150 80 128 -108 219 -146 72 -163 83 -163 105 0 16 6 26 17 28 10 2 87
-33 172 -77 84 -45 158 -81 163 -81 15 0 127 210 117 219 -14 13 -273 166
-330 195 -69 36 -137 42 -189 18z m143 -62 c62 -28 302 -171 302 -179 0 -4
-14 -33 -31 -64 l-30 -56 -143 74 c-88 46 -155 75 -173 75 -38 0 -83 -48 -83
-89 0 -50 37 -81 180 -149 74 -35 136 -65 137 -66 2 -1 -9 -31 -25 -65 -19
-43 -31 -61 -42 -57 -8 2 -77 30 -153 61 -146 60 -177 63 -211 26 -9 -10 -19
-34 -23 -53 -9 -57 30 -90 167 -142 63 -24 127 -49 141 -54 l27 -11 -23 -63
c-13 -36 -29 -63 -37 -62 -16 1 -431 134 -437 140 -7 6 38 142 48 149 5 3 25
-2 45 -10 35 -15 37 -15 45 7 6 16 2 32 -12 56 -12 21 -20 53 -21 86 -1 90 53
154 138 163 25 3 46 7 46 9 0 2 -9 21 -20 41 -41 77 -15 192 53 233 40 25 80
25 135 0z"/>
<path d="M9548 7591 c-233 -77 -295 -291 -149 -519 55 -87 58 -88 141 -58 83
30 90 31 90 12 0 -8 4 -17 8 -20 8 -5 125 34 162 54 16 8 20 5 25 -21 4 -17 5
-32 3 -33 -1 -2 -41 -16 -88 -31 -180 -59 -230 -108 -230 -225 0 -53 30 -146
59 -181 l17 -22 97 24 c53 12 97 27 97 32 0 5 -7 21 -16 37 -24 39 -13 56 48
73 111 32 102 34 117 -22 7 -28 16 -51 19 -51 4 0 49 10 100 22 l94 22 -6 31
c-3 16 -9 42 -12 56 -6 26 -4 27 80 49 55 15 83 27 79 34 -8 15 -146 240 -149
245 -2 2 -24 -4 -50 -13 -26 -9 -48 -16 -49 -16 -1 0 -7 18 -14 39 l-11 40
-72 -25 c-39 -13 -74 -24 -77 -24 -2 0 7 12 22 28 59 62 74 175 36 276 -24 66
-96 149 -153 178 -57 29 -147 33 -218 9z m189 -62 c129 -62 187 -257 106 -356
-32 -41 -126 -95 -156 -91 -13 2 -33 40 -73 143 -31 77 -57 141 -59 144 -3 2
-20 -12 -40 -32 -47 -47 -48 -99 -2 -190 l33 -66 -23 -10 c-38 -17 -46 -14
-75 32 -97 154 -90 304 19 381 92 65 193 82 270 45z m-167 -354 c0 -5 -5 -3
-10 5 -5 8 -10 20 -10 25 0 6 5 3 10 -5 5 -8 10 -19 10 -25z m414 -143 c10
-37 10 -37 66 -17 23 8 46 15 50 15 4 0 28 -34 53 -74 39 -64 43 -76 29 -80
-9 -3 -43 -12 -76 -21 -63 -19 -62 -14 -41 -98 6 -23 3 -27 -32 -36 -21 -6
-41 -11 -45 -11 -3 0 -11 23 -18 50 -7 28 -16 50 -22 50 -19 0 -192 -52 -219
-65 -31 -16 -39 -33 -39 -80 0 -28 -4 -33 -31 -39 -17 -3 -37 -6 -44 -6 -20 0
-45 75 -45 133 0 87 26 109 195 167 92 31 140 52 139 61 -1 8 -5 26 -8 40 -7
23 -3 27 26 36 44 14 51 12 62 -25z"/>
<path d="M9653 7409 c-18 -5 -33 -15 -33 -22 0 -7 14 -46 31 -88 32 -77 32
-77 60 -67 93 32 122 136 48 173 -31 17 -59 18 -106 4z m84 -65 c3 -8 -1 -22
-9 -31 -14 -13 -17 -11 -26 16 -10 28 -9 31 9 31 11 0 22 -7 26 -16z"/>
<path d="M602 7058 c-89 -184 -95 -342 -18 -458 33 -51 115 -91 188 -93 98 -2
161 36 244 149 60 80 94 98 94 47 -1 -41 -31 -101 -84 -167 -26 -32 -46 -59
-44 -60 2 -2 59 -13 127 -25 94 -16 127 -19 137 -10 27 22 73 134 89 218 38
188 -28 322 -183 367 -112 33 -204 -17 -326 -178 -36 -47 -56 -49 -56 -5 0 44
40 126 85 176 21 23 36 43 34 45 -2 2 -52 18 -111 35 -59 17 -114 34 -121 37
-10 3 -27 -21 -55 -78z m144 -10 l41 -11 -39 -74 c-47 -92 -51 -151 -13 -188
47 -48 84 -32 166 71 60 76 117 121 164 130 84 15 191 -57 215 -146 15 -56 8
-143 -19 -230 -32 -103 -39 -109 -108 -97 -32 5 -59 11 -61 12 -2 2 8 20 22
42 31 46 56 116 56 153 0 44 -35 80 -79 80 -41 0 -78 -32 -142 -123 -46 -66
-108 -102 -174 -101 -181 3 -239 203 -130 451 20 44 28 54 42 48 10 -3 36 -11
59 -17z"/>
<path d="M1070 5215 l0 -105 48 0 c40 0 52 5 85 36 32 30 37 41 37 79 0 58 -8
75 -35 75 -13 0 -27 5 -30 10 -3 6 -28 10 -56 10 l-49 0 0 -105z"/>
<path d="M9490 3989 c-34 -66 -60 -122 -58 -123 1 -2 149 -83 328 -181 179
-98 348 -191 376 -207 l52 -29 72 137 c39 75 70 138 68 140 -2 2 -175 87 -383
190 -209 102 -383 188 -386 190 -4 2 -34 -51 -69 -117z m757 -293 c1 -1 -17
-39 -40 -84 l-43 -81 -319 175 c-176 97 -324 179 -328 184 -8 7 18 68 50 117
15 22 16 22 346 -144 183 -91 333 -166 334 -167z"/>
<path d="M1125 3809 c-187 -135 -340 -251 -340 -256 0 -4 29 -73 65 -151 44
-97 69 -142 80 -142 9 0 101 18 205 40 104 22 190 38 192 36 2 -2 -13 -18 -34
-36 -21 -18 -89 -82 -152 -142 l-113 -109 58 -97 c31 -53 68 -113 80 -133 l23
-36 243 83 c134 46 316 109 405 140 l162 56 -71 106 c-39 59 -74 111 -78 115
-4 4 -80 -24 -170 -62 -90 -39 -165 -70 -166 -68 -1 1 58 58 132 125 l135 124
-49 91 c-27 51 -57 106 -65 123 l-16 31 -192 -38 c-106 -22 -194 -38 -195 -36
-2 1 60 42 137 91 76 48 149 96 160 105 l21 17 -47 114 c-26 63 -52 124 -59
136 -10 19 -31 6 -351 -227z m353 74 c18 -42 29 -80 25 -84 -11 -9 -414 -264
-440 -278 -20 -10 -21 -15 -11 -36 13 -28 16 -29 55 -14 50 19 506 110 513
102 4 -4 25 -43 48 -85 l41 -77 -34 -28 c-18 -15 -100 -89 -182 -163 -81 -74
-161 -145 -176 -157 -25 -19 -27 -25 -17 -43 7 -14 18 -20 28 -17 10 3 125 53
257 111 l239 105 40 -60 c22 -34 35 -63 30 -68 -17 -15 -666 -232 -679 -228
-13 6 -105 157 -105 174 0 14 297 294 348 328 43 28 49 39 33 65 -8 12 -17 12
-63 -3 -29 -9 -141 -35 -248 -57 -107 -23 -202 -43 -211 -46 -12 -3 -27 20
-63 96 -25 55 -47 105 -49 110 -2 9 570 430 584 430 3 0 20 -35 37 -77z"/>
<path d="M9637 3590 c-99 -38 -186 -137 -226 -258 -41 -120 -18 -230 65 -315
101 -102 240 -132 349 -75 112 58 218 216 231 344 10 91 -14 154 -85 225 -94
93 -221 123 -334 79z m246 -83 c31 -20 69 -56 84 -79 24 -36 28 -52 28 -112 0
-59 -6 -82 -31 -136 -41 -86 -102 -153 -170 -186 -46 -23 -63 -26 -110 -21
-92 9 -185 80 -221 166 -50 118 44 322 180 391 34 17 56 20 113 18 63 -3 78
-8 127 -41z"/>
<path d="M9650 3388 c-32 -17 -70 -74 -70 -107 0 -89 153 -177 227 -130 30 18
53 62 53 102 0 83 -138 172 -210 135z m83 -64 c50 -25 67 -45 67 -75 0 -40
-37 -63 -76 -49 -37 14 -84 59 -84 80 0 23 29 60 46 60 8 0 29 -7 47 -16z"/>
<path d="M9241 3016 c-142 -47 -267 -204 -278 -350 -15 -191 177 -364 362
-326 107 22 232 135 288 259 28 64 34 156 13 219 -22 66 -92 144 -159 177 -66
32 -164 41 -226 21z m166 -59 c109 -40 179 -140 171 -245 -6 -80 -40 -145
-118 -224 -55 -55 -76 -69 -125 -83 -49 -15 -67 -16 -109 -6 -66 15 -138 68
-173 128 -38 65 -40 164 -4 238 34 69 134 168 191 188 53 18 123 20 167 4z"/>
<path d="M9199 2781 c-44 -44 -50 -77 -21 -130 24 -45 90 -91 139 -98 34 -4
45 -1 76 27 64 55 59 117 -15 187 -68 65 -124 69 -179 14z m141 -59 c44 -43
48 -56 24 -90 -22 -32 -54 -27 -102 14 -45 38 -52 66 -25 96 25 28 58 22 103
-20z"/>
<path d="M1698 2842 c-42 -31 -77 -59 -77 -62 -1 -3 20 -16 46 -30 50 -27 153
-116 153 -133 0 -5 -26 15 -58 45 -90 86 -156 113 -236 96 -49 -10 -118 -63
-141 -109 -19 -36 -19 -110 -1 -154 20 -47 92 -122 131 -136 28 -10 31 -15 23
-29 -9 -14 5 -36 82 -124 l92 -106 32 26 c109 91 287 269 305 307 46 95 16
210 -84 324 -48 55 -159 144 -178 142 -7 0 -47 -26 -89 -57z m182 -87 c131
-128 161 -215 107 -308 -23 -40 -249 -257 -267 -257 -4 0 -31 27 -60 61 l-53
61 32 25 c31 24 31 26 15 44 -11 12 -31 19 -53 19 -49 0 -100 29 -138 79 -65
84 -37 179 62 217 43 16 47 16 92 -1 32 -12 76 -46 135 -103 l88 -85 25 23
c30 29 33 72 6 116 -21 34 -83 98 -120 122 l-23 16 28 23 c16 13 33 23 38 23
4 0 43 -34 86 -75z"/>
<path d="M1606 2559 c-61 -48 -8 -149 79 -149 31 0 73 20 97 47 17 18 16 21
-20 55 -77 73 -110 83 -156 47z m84 -64 l23 -25 -24 0 c-27 0 -49 17 -49 37 0
21 25 15 50 -12z"/>
<path d="M2062 2359 c-171 -160 -312 -294 -312 -298 0 -3 49 -55 108 -114
l109 -108 301 314 301 314 -92 91 c-51 51 -95 92 -97 92 -3 0 -146 -131 -318
-291z m370 164 c26 -26 48 -51 48 -55 0 -7 -497 -531 -508 -536 -4 -1 -37 28
-74 65 l-66 68 272 252 c149 139 273 253 276 253 2 0 26 -21 52 -47z"/>
<path d="M2311 2124 c-160 -174 -291 -320 -291 -324 0 -8 214 -193 229 -198 5
-2 33 26 62 62 29 36 54 66 55 66 1 0 -8 -43 -21 -96 l-22 -95 51 -38 c28 -21
92 -67 142 -104 l92 -65 5 46 c3 26 11 108 18 182 6 74 17 140 23 146 6 6 73
38 148 70 76 32 137 61 137 64 0 3 -57 46 -127 96 l-126 91 -63 -34 c-35 -19
-63 -32 -63 -29 0 4 50 68 112 144 61 75 115 142 120 148 5 8 -26 41 -91 98
l-99 86 -291 -316z m356 178 l52 -47 -236 -287 c-194 -237 -238 -286 -252
-278 -9 5 -42 33 -75 62 l-58 53 251 273 c138 149 255 272 259 272 4 0 30 -22
59 -48z m89 -399 c35 -26 61 -50 57 -54 -5 -4 -55 -28 -112 -53 -58 -26 -106
-48 -108 -50 -2 -1 -10 -69 -18 -151 -8 -81 -16 -149 -17 -151 -2 -1 -40 25
-86 58 -75 55 -83 63 -77 87 3 14 18 75 33 136 l27 110 105 57 c58 32 111 58
119 58 7 0 42 -21 77 -47z"/>
<path d="M8315 2146 c-35 -15 -49 -30 -75 -82 -11 -22 -19 -33 -20 -26 0 22
-19 13 -127 -65 -60 -42 -109 -78 -111 -79 -3 -2 312 -480 328 -498 7 -7 210
125 254 164 4 5 -26 53 -67 108 -99 130 -117 161 -117 198 0 39 25 62 85 78
l47 11 -82 103 c-45 56 -83 102 -83 102 -1 -1 -16 -7 -32 -14z m53 -105 c18
-22 32 -42 32 -44 0 -3 -18 -23 -40 -45 -34 -33 -40 -46 -40 -80 0 -58 9 -75
94 -189 l75 -102 -67 -49 c-37 -26 -72 -51 -79 -55 -8 -5 -55 56 -141 185 -70
106 -131 198 -135 204 -3 6 22 31 60 59 l66 47 32 -37 c27 -33 34 -36 52 -27
18 10 20 16 12 49 -9 44 -3 80 19 106 21 24 24 22 60 -22z"/>
<path d="M7818 1780 c-60 -15 -149 -64 -225 -124 -103 -83 -104 -85 -49 -195
l46 -91 50 59 c49 59 82 87 130 110 18 9 15 4 -10 -16 -135 -108 -164 -154
-158 -245 l4 -60 -21 41 -21 41 -49 -50 c-100 -102 -219 -131 -289 -70 -67 59
-84 163 -37 229 32 45 118 82 205 90 l73 6 -61 127 -61 127 -75 -20 c-217 -56
-350 -172 -395 -344 -38 -149 7 -323 112 -430 120 -121 294 -137 492 -45 61
29 184 110 196 130 3 5 -8 36 -25 69 -37 74 -38 82 -3 40 33 -39 95 -68 144
-69 56 0 156 55 192 106 25 36 32 41 41 29 9 -13 30 -3 129 57 64 40 117 76
117 81 0 5 -43 75 -95 155 -96 148 -158 223 -205 247 -36 18 -108 25 -152 15z
m150 -87 c31 -24 222 -293 222 -312 0 -3 -30 -25 -67 -48 -59 -37 -69 -41 -78
-27 -27 42 -32 46 -52 40 -14 -5 -22 -18 -27 -46 -11 -73 -104 -149 -181 -150
-67 0 -126 64 -127 139 -1 69 27 104 165 206 66 49 76 60 65 74 -23 31 -42 41
-76 41 -47 0 -95 -25 -158 -82 l-54 -50 -17 37 -18 37 55 49 c54 47 145 103
199 120 47 15 110 4 149 -28z m-624 -65 c30 -68 28 -72 -33 -83 -132 -25 -225
-140 -207 -258 10 -67 63 -146 116 -175 80 -42 201 -20 288 53 16 14 33 25 36
25 3 0 19 -27 36 -60 l30 -60 -42 -31 c-55 -40 -153 -87 -220 -105 -205 -54
-368 49 -418 265 -39 168 42 345 195 424 43 22 163 66 181 67 6 0 23 -28 38
-62z"/>
<path d="M7860 1459 c-60 -48 -76 -80 -59 -121 22 -54 79 -64 128 -22 42 35
50 84 22 140 -11 24 -25 44 -30 44 -5 0 -32 -18 -61 -41z m40 -88 c-12 -23
-35 -27 -46 -9 -4 6 5 21 22 35 23 18 30 20 32 8 2 -7 -2 -23 -8 -34z"/>
<path d="M4071 1498 c-138 -441 -231 -752 -224 -758 13 -11 380 -109 453 -121
112 -18 206 5 269 64 44 42 71 101 71 160 0 58 -17 101 -59 146 -34 37 -36 41
-19 41 23 0 81 54 99 94 23 50 24 105 4 154 -37 86 -101 120 -360 191 -104 28
-197 54 -207 57 -12 3 -19 -4 -27 -28z m244 -93 c188 -51 256 -82 285 -130 24
-39 26 -95 5 -135 -19 -37 -82 -70 -134 -70 -26 0 -41 -5 -45 -16 -11 -30 -6
-40 29 -53 74 -26 125 -90 125 -155 0 -115 -102 -187 -244 -172 -55 6 -386 90
-412 105 -8 4 14 89 72 276 47 149 93 300 104 337 13 42 25 66 33 63 7 -2 89
-25 182 -50z"/>
<path d="M4247 1303 c-6 -10 -47 -161 -47 -172 0 -17 128 -40 165 -30 68 19
89 103 39 153 -35 34 -145 69 -157 49z m110 -85 c37 -30 -2 -72 -57 -62 -29 6
-31 9 -24 38 3 17 9 35 11 39 6 10 52 0 70 -15z"/>
<path d="M4166 1009 c-12 -35 -46 -166 -46 -176 0 -19 144 -48 186 -37 70 17
99 95 57 152 -30 41 -188 89 -197 61z m106 -69 c58 -17 74 -70 26 -86 -23 -7
-108 4 -108 14 0 25 23 82 33 82 7 0 29 -5 49 -10z"/>
<path d="M4784 1370 c-75 -38 -96 -139 -42 -197 l23 -25 -30 4 -30 3 -45 -298
c-26 -164 -44 -300 -41 -301 10 -6 301 -39 305 -35 4 4 56 550 56 581 0 9 -8
19 -19 23 -17 5 -16 8 9 35 38 41 47 98 23 147 -35 71 -134 101 -209 63z m142
-71 c29 -28 31 -58 3 -93 -17 -21 -29 -26 -65 -26 -83 0 -122 73 -68 127 21
21 32 25 66 20 22 -3 51 -16 64 -28z m-42 -225 c38 -6 38 -7 33 -43 -3 -20
-13 -125 -23 -233 -10 -109 -20 -202 -23 -206 -3 -5 -46 -4 -96 2 -80 10 -90
14 -89 31 0 11 16 120 35 243 l34 224 45 -6 c25 -4 62 -9 84 -12z"/>
<path d="M5050 1366 c0 -6 -14 -199 -31 -428 -18 -230 -30 -420 -27 -423 2 -3
73 -8 156 -12 l152 -6 1 89 1 89 42 -89 42 -90 170 3 c93 1 171 4 173 6 2 2
-40 74 -93 159 -53 86 -96 158 -96 161 0 3 34 66 75 140 41 75 75 138 75 140
0 7 -187 6 -258 -1 l-60 -7 -31 -66 -31 -66 5 197 5 197 -33 5 c-74 12 -237
13 -237 2z m204 -318 c-3 -145 -7 -314 -10 -376 l-6 -114 -88 4 c-49 1 -91 6
-94 9 -6 6 40 669 50 717 4 20 10 22 78 22 l74 0 -4 -262z m336 -3 c0 -2 -27
-53 -61 -114 l-60 -109 80 -129 79 -128 -96 -6 c-64 -4 -101 -2 -108 5 -6 6
-34 64 -62 128 l-52 118 47 107 c25 60 51 114 56 121 9 11 177 19 177 7z"/>
<path d="M5888 1131 c-140 -45 -228 -167 -228 -316 0 -168 104 -274 286 -292
73 -7 206 18 283 53 l54 24 -7 53 c-4 28 -9 68 -13 88 -5 35 -3 37 26 44 17 4
31 8 31 10 0 30 -38 172 -56 206 -63 126 -219 180 -376 130z m203 -52 c79 -27
136 -101 153 -200 8 -44 21 -39 -189 -69 -82 -12 -152 -23 -154 -25 -1 -2 1
-16 6 -31 22 -66 116 -90 233 -60 34 9 64 15 66 14 1 -2 5 -20 9 -40 l7 -37
-69 -21 c-37 -12 -100 -24 -140 -27 -135 -11 -223 30 -269 124 -23 47 -26 62
-22 126 6 87 31 141 88 190 69 59 196 84 281 56z m29 -329 c-14 -4 -43 -8 -65
-8 l-40 1 35 7 c19 4 49 8 65 8 29 0 29 0 5 -8z"/>
<path d="M5943 998 c-28 -14 -53 -66 -53 -113 l0 -37 43 6 c23 3 66 8 95 12
45 6 52 9 52 29 0 84 -69 136 -137 103z m65 -65 c2 -8 -6 -13 -22 -13 -25 0
-33 10 -19 24 10 10 36 3 41 -11z"/>
<path d="M8733 2296 c-36 -16 -63 -61 -63 -104 0 -45 57 -123 109 -149 53 -27
84 -22 126 18 41 40 42 99 1 157 -49 72 -117 102 -173 78z m103 -90 c51 -51
58 -87 20 -111 -30 -20 -49 -11 -95 40 -35 40 -39 69 -14 97 24 27 41 22 89
-26z"/>
</g>
</svg>
